<svg width="237" height="48" viewBox="0 0 237 48" fill="none" xmlns="http://www.w3.org/2000/svg">
<path d="M2.93466 9.90909H10.5199L18.5312 29.4545H18.8722L26.8835 9.90909H34.4688V39H28.5028V20.0653H28.2614L20.733 38.858H16.6705L9.14205 19.9943H8.90057V39H2.93466V9.90909ZM49.2805 39.4261C47.0741 39.4261 45.166 38.9574 43.5561 38.0199C41.9557 37.0729 40.7199 35.7566 39.8487 34.071C38.9775 32.3759 38.5419 30.411 38.5419 28.1761C38.5419 25.9223 38.9775 23.9527 39.8487 22.267C40.7199 20.572 41.9557 19.2557 43.5561 18.3182C45.166 17.3712 47.0741 16.8977 49.2805 16.8977C51.487 16.8977 53.3904 17.3712 54.9908 18.3182C56.6006 19.2557 57.8411 20.572 58.7124 22.267C59.5836 23.9527 60.0192 25.9223 60.0192 28.1761C60.0192 30.411 59.5836 32.3759 58.7124 34.071C57.8411 35.7566 56.6006 37.0729 54.9908 38.0199C53.3904 38.9574 51.487 39.4261 49.2805 39.4261ZM49.3089 34.7386C50.3127 34.7386 51.1508 34.4545 51.8232 33.8864C52.4955 33.3087 53.0021 32.5227 53.343 31.5284C53.6934 30.5341 53.8686 29.4025 53.8686 28.1335C53.8686 26.8646 53.6934 25.733 53.343 24.7386C53.0021 23.7443 52.4955 22.9583 51.8232 22.3807C51.1508 21.803 50.3127 21.5142 49.3089 21.5142C48.2957 21.5142 47.4434 21.803 46.7521 22.3807C46.0703 22.9583 45.5542 23.7443 45.2038 24.7386C44.8629 25.733 44.6925 26.8646 44.6925 28.1335C44.6925 29.4025 44.8629 30.5341 45.2038 31.5284C45.5542 32.5227 46.0703 33.3087 46.7521 33.8864C47.4434 34.4545 48.2957 34.7386 49.3089 34.7386ZM70.005 26.3864V39H63.9538V17.1818H69.7209V21.0312H69.9766C70.4595 19.7623 71.2692 18.7585 72.4055 18.0199C73.5419 17.2718 74.9197 16.8977 76.5391 16.8977C78.0542 16.8977 79.3752 17.2292 80.5021 17.892C81.629 18.5549 82.505 19.5019 83.13 20.733C83.755 21.9545 84.0675 23.4129 84.0675 25.108V39H78.0163V26.1875C78.0258 24.8523 77.6849 23.8106 76.9936 23.0625C76.3023 22.3049 75.3506 21.9261 74.1385 21.9261C73.3241 21.9261 72.6044 22.1013 71.9794 22.4517C71.3639 22.8021 70.8809 23.3134 70.5305 23.9858C70.1896 24.6487 70.0144 25.4489 70.005 26.3864ZM98.6946 39.4261C96.4882 39.4261 94.58 38.9574 92.9702 38.0199C91.3698 37.0729 90.134 35.7566 89.2628 34.071C88.3916 32.3759 87.956 30.411 87.956 28.1761C87.956 25.9223 88.3916 23.9527 89.2628 22.267C90.134 20.572 91.3698 19.2557 92.9702 18.3182C94.58 17.3712 96.4882 16.8977 98.6946 16.8977C100.901 16.8977 102.804 17.3712 104.405 18.3182C106.015 19.2557 107.255 20.572 108.126 22.267C108.998 23.9527 109.433 25.9223 109.433 28.1761C109.433 30.411 108.998 32.3759 108.126 34.071C107.255 35.7566 106.015 37.0729 104.405 38.0199C102.804 38.9574 100.901 39.4261 98.6946 39.4261ZM98.723 34.7386C99.7268 34.7386 100.565 34.4545 101.237 33.8864C101.91 33.3087 102.416 32.5227 102.757 31.5284C103.107 30.5341 103.283 29.4025 103.283 28.1335C103.283 26.8646 103.107 25.733 102.757 24.7386C102.416 23.7443 101.91 22.9583 101.237 22.3807C100.565 21.803 99.7268 21.5142 98.723 21.5142C97.7098 21.5142 96.8575 21.803 96.1662 22.3807C95.4844 22.9583 94.9683 23.7443 94.6179 24.7386C94.277 25.733 94.1065 26.8646 94.1065 28.1335C94.1065 29.4025 94.277 30.5341 94.6179 31.5284C94.9683 32.5227 95.4844 33.3087 96.1662 33.8864C96.8575 34.4545 97.7098 34.7386 98.723 34.7386ZM113.368 47.1818V17.1818H119.334V20.8466H119.604C119.869 20.2595 120.252 19.6629 120.754 19.0568C121.266 18.4413 121.929 17.9299 122.743 17.5227C123.567 17.1061 124.589 16.8977 125.811 16.8977C127.402 16.8977 128.87 17.3144 130.214 18.1477C131.559 18.9716 132.634 20.2169 133.439 21.8835C134.244 23.5407 134.646 25.6193 134.646 28.1193C134.646 30.553 134.253 32.608 133.467 34.2841C132.691 35.9508 131.63 37.215 130.286 38.0767C128.95 38.929 127.454 39.3551 125.797 39.3551C124.623 39.3551 123.624 39.161 122.8 38.7727C121.985 38.3845 121.318 37.8968 120.797 37.3097C120.276 36.7131 119.878 36.1117 119.604 35.5057H119.419V47.1818H113.368ZM119.291 28.0909C119.291 29.3883 119.471 30.5199 119.831 31.4858C120.191 32.4517 120.712 33.2045 121.393 33.7443C122.075 34.2746 122.904 34.5398 123.879 34.5398C124.864 34.5398 125.697 34.2699 126.379 33.7301C127.061 33.1809 127.577 32.4233 127.928 31.4574C128.287 30.482 128.467 29.3598 128.467 28.0909C128.467 26.8314 128.292 25.7235 127.942 24.767C127.591 23.8106 127.075 23.0625 126.393 22.5227C125.712 21.983 124.874 21.7131 123.879 21.7131C122.894 21.7131 122.061 21.9735 121.379 22.4943C120.707 23.0152 120.191 23.7538 119.831 24.7102C119.471 25.6667 119.291 26.7936 119.291 28.0909ZM148.538 39.4261C146.332 39.4261 144.424 38.9574 142.814 38.0199C141.214 37.0729 139.978 35.7566 139.107 34.071C138.235 32.3759 137.8 30.411 137.8 28.1761C137.8 25.9223 138.235 23.9527 139.107 22.267C139.978 20.572 141.214 19.2557 142.814 18.3182C144.424 17.3712 146.332 16.8977 148.538 16.8977C150.745 16.8977 152.648 17.3712 154.249 18.3182C155.858 19.2557 157.099 20.572 157.97 22.267C158.841 23.9527 159.277 25.9223 159.277 28.1761C159.277 30.411 158.841 32.3759 157.97 34.071C157.099 35.7566 155.858 37.0729 154.249 38.0199C152.648 38.9574 150.745 39.4261 148.538 39.4261ZM148.567 34.7386C149.571 34.7386 150.409 34.4545 151.081 33.8864C151.753 33.3087 152.26 32.5227 152.601 31.5284C152.951 30.5341 153.126 29.4025 153.126 28.1335C153.126 26.8646 152.951 25.733 152.601 24.7386C152.26 23.7443 151.753 22.9583 151.081 22.3807C150.409 21.803 149.571 21.5142 148.567 21.5142C147.554 21.5142 146.701 21.803 146.01 22.3807C145.328 22.9583 144.812 23.7443 144.462 24.7386C144.121 25.733 143.95 26.8646 143.95 28.1335C143.95 29.4025 144.121 30.5341 144.462 31.5284C144.812 32.5227 145.328 33.3087 146.01 33.8864C146.701 34.4545 147.554 34.7386 148.567 34.7386ZM169.263 9.90909V39H163.212V9.90909H169.263ZM174.11 39V17.1818H180.161V39H174.11ZM177.15 14.3693C176.25 14.3693 175.478 14.071 174.835 13.4744C174.2 12.8684 173.883 12.1439 173.883 11.3011C173.883 10.4678 174.2 9.75284 174.835 9.15625C175.478 8.55019 176.25 8.24716 177.15 8.24716C178.049 8.24716 178.817 8.55019 179.451 9.15625C180.095 9.75284 180.417 10.4678 180.417 11.3011C180.417 12.1439 180.095 12.8684 179.451 13.4744C178.817 14.071 178.049 14.3693 177.15 14.3693Z" fill="#695ECB"/>
<path d="M192.494 15V6.27273H194.124V7.69318H194.232C194.414 7.21212 194.711 6.83712 195.124 6.56818C195.537 6.29545 196.031 6.15909 196.607 6.15909C197.191 6.15909 197.679 6.29545 198.073 6.56818C198.471 6.84091 198.764 7.21591 198.954 7.69318H199.045C199.253 7.22727 199.585 6.85606 200.039 6.57955C200.494 6.29924 201.035 6.15909 201.664 6.15909C202.456 6.15909 203.102 6.4072 203.602 6.90341C204.105 7.39962 204.357 8.14773 204.357 9.14773V15H202.658V9.30682C202.658 8.71591 202.497 8.28788 202.175 8.02273C201.853 7.75758 201.469 7.625 201.022 7.625C200.469 7.625 200.039 7.79545 199.732 8.13636C199.425 8.47348 199.272 8.9072 199.272 9.4375V15H197.579V9.19886C197.579 8.72538 197.431 8.3447 197.136 8.05682C196.84 7.76894 196.456 7.625 195.982 7.625C195.66 7.625 195.363 7.71023 195.09 7.88068C194.821 8.04735 194.603 8.2803 194.437 8.57955C194.274 8.87879 194.192 9.22538 194.192 9.61932V15H192.494ZM212.163 11.3807V6.27273H213.867V15H212.197V13.4886H212.106C211.905 13.9545 211.583 14.3428 211.14 14.6534C210.701 14.9602 210.153 15.1136 209.498 15.1136C208.937 15.1136 208.441 14.9905 208.009 14.7443C207.581 14.4943 207.244 14.125 206.998 13.6364C206.755 13.1477 206.634 12.5436 206.634 11.8239V6.27273H208.333V11.6193C208.333 12.214 208.498 12.6875 208.827 13.0398C209.157 13.392 209.585 13.5682 210.112 13.5682C210.43 13.5682 210.746 13.4886 211.06 13.3295C211.379 13.1705 211.642 12.9299 211.85 12.608C212.062 12.286 212.166 11.8769 212.163 11.3807ZM222.69 8.40341L221.15 8.67614C221.085 8.47917 220.983 8.29167 220.843 8.11364C220.707 7.93561 220.521 7.78977 220.286 7.67614C220.051 7.5625 219.758 7.50568 219.406 7.50568C218.924 7.50568 218.523 7.61364 218.201 7.82955C217.879 8.04167 217.718 8.31629 217.718 8.65341C217.718 8.94508 217.826 9.17992 218.042 9.35795C218.258 9.53598 218.606 9.68182 219.087 9.79545L220.474 10.1136C221.277 10.2992 221.875 10.5852 222.269 10.9716C222.663 11.358 222.86 11.8598 222.86 12.4773C222.86 13 222.709 13.4659 222.406 13.875C222.106 14.2803 221.688 14.5985 221.15 14.8295C220.616 15.0606 219.996 15.1761 219.292 15.1761C218.315 15.1761 217.517 14.9678 216.9 14.5511C216.282 14.1307 215.904 13.5341 215.763 12.7614L217.406 12.5114C217.508 12.9394 217.718 13.2633 218.036 13.483C218.354 13.6989 218.769 13.8068 219.281 13.8068C219.837 13.8068 220.282 13.6913 220.616 13.4602C220.949 13.2254 221.116 12.9394 221.116 12.6023C221.116 12.3295 221.013 12.1004 220.809 11.9148C220.608 11.7292 220.299 11.589 219.883 11.4943L218.406 11.1705C217.591 10.9848 216.989 10.6894 216.599 10.2841C216.212 9.87879 216.019 9.36553 216.019 8.74432C216.019 8.22917 216.163 7.77841 216.451 7.39205C216.739 7.00568 217.137 6.70455 217.644 6.48864C218.152 6.26894 218.733 6.15909 219.388 6.15909C220.332 6.15909 221.074 6.36364 221.616 6.77273C222.157 7.17803 222.515 7.72159 222.69 8.40341ZM224.728 15V6.27273H226.427V15H224.728ZM225.586 4.92614C225.29 4.92614 225.037 4.82765 224.825 4.63068C224.616 4.42992 224.512 4.19129 224.512 3.91477C224.512 3.63447 224.616 3.39583 224.825 3.19886C225.037 2.99811 225.29 2.89773 225.586 2.89773C225.881 2.89773 226.133 2.99811 226.342 3.19886C226.554 3.39583 226.66 3.63447 226.66 3.91477C226.66 4.19129 226.554 4.42992 226.342 4.63068C226.133 4.82765 225.881 4.92614 225.586 4.92614ZM232.388 15.1761C231.544 15.1761 230.817 14.9848 230.207 14.6023C229.601 14.2159 229.135 13.6837 228.809 13.0057C228.483 12.3277 228.32 11.5511 228.32 10.6761C228.32 9.78977 228.487 9.00758 228.82 8.32955C229.154 7.64773 229.623 7.11553 230.229 6.73295C230.835 6.35038 231.549 6.15909 232.371 6.15909C233.034 6.15909 233.625 6.2822 234.144 6.52841C234.663 6.77083 235.082 7.11174 235.4 7.55114C235.722 7.99053 235.913 8.50379 235.974 9.09091H234.32C234.229 8.68182 234.021 8.32955 233.695 8.03409C233.373 7.73864 232.942 7.59091 232.4 7.59091C231.926 7.59091 231.512 7.71591 231.156 7.96591C230.803 8.21212 230.529 8.56439 230.332 9.02273C230.135 9.47727 230.036 10.0152 230.036 10.6364C230.036 11.2727 230.133 11.822 230.326 12.2841C230.519 12.7462 230.792 13.1042 231.144 13.358C231.5 13.6117 231.919 13.7386 232.4 13.7386C232.722 13.7386 233.013 13.6799 233.275 13.5625C233.54 13.4413 233.762 13.2689 233.94 13.0455C234.121 12.822 234.248 12.553 234.32 12.2386H235.974C235.913 12.803 235.729 13.3068 235.423 13.75C235.116 14.1932 234.705 14.5417 234.19 14.7955C233.678 15.0492 233.078 15.1761 232.388 15.1761Z" fill="#48CA33"/>
</svg>
